<?xml version="1.0" encoding="UTF-8"?>
<svg width="200px" height="200px" viewBox="0 0 200 200" version="1.1" xmlns="http://www.w3.org/2000/svg" xmlns:xlink="http://www.w3.org/1999/xlink">
    <title>画板</title>
    <g id="画板" stroke="none" stroke-width="1" fill="none" fill-rule="evenodd">
        <circle id="椭圆形" fill="#FF6400" cx="100" cy="100" r="100"></circle>
        <path d="M108.718018,155.765918 C125.450635,155.765918 137.824756,148.87749 145.840381,135.100635 C151.751904,124.880713 154.707666,112.406396 154.707666,97.6776855 C154.707666,91.8663574 154.006299,85.7544434 152.603564,79.3419434 C151.20083,72.9294434 148.570703,66.9678223 144.713184,61.4570801 C139.903809,54.6437988 133.616553,49.959668 125.851416,47.4046875 C121.292529,45.9017578 115.581396,45.1001953 108.718018,45 L108.718018,45 L61,45 L61,155.765918 L108.718018,155.765918 Z M104.8104,136.528418 L83.4687988,136.528418 L83.4687988,64.2375 L104.8104,64.2375 C115.330908,64.2375 122.357104,67.2558838 125.888989,73.2926514 C129.420874,79.3294189 131.186816,87.9837891 131.186816,99.2557617 C131.186816,107.42168 130.009521,114.4604 127.654932,120.371924 C123.346533,131.14292 115.731689,136.528418 104.8104,136.528418 L104.8104,136.528418 Z" id="D" fill="#FFFFFF" fill-rule="nonzero"></path>
    </g>
</svg>
